<?xml version="1.0" standalone="no"?><!DOCTYPE svg PUBLIC "-//W3C//DTD SVG 1.1//EN" "http://www.w3.org/Graphics/SVG/1.1/DTD/svg11.dtd"><svg width="132" height="60" enable-background="new 0 0 1771 2499.8" viewBox="0 0 1771 2499.8" version="1.1" xmlns="http://www.w3.org/2000/svg" xmlns:xlink="http://www.w3.org/1999/xlink" style="block-size:60px;height:60px;inline-size:132px;list-style-type:none;min-block-size:auto;min-height:auto;min-inline-size:auto;min-width:auto;perspective-origin:66px 30px;text-align:left;transform-origin:66px 30px;width:132px;">
                                        <path d="m1387.8 92.5h-146.9l152.8 165.9v78.9h-314.8v-92.4h152.8l-152.8-165.9v-79h309zm-371.4 0h-147.1l153 165.9v78.9h-314.9v-92.4h152.8l-152.8-165.9v-79h309zm-367.8 3.8h-158.5v144.8h158.5v96.3h-271.3v-337.4h271.3z" fill="#131313" style="block-size:auto;d:path(&quot;M 1387.8 92.5 H 1240.9 L 1393.7 258.4 V 337.3 H 1078.9 V 244.9 H 1231.7 L 1078.9 79 V 0 H 1387.9 Z M 1016.4 92.5 H 869.3 L 1022.3 258.4 V 337.3 H 707.4 V 244.9 H 860.2 L 707.4 79 V 0 H 1016.4 Z M 648.6 96.3 H 490.1 V 241.1 H 648.6 V 337.4 H 377.3 V 0.0000305176 H 648.6 Z&quot;);display:inline;fill:rgb(19, 19, 19);height:auto;inline-size:auto;list-style-type:none;overflow-x:visible;overflow-y:visible;perspective-origin:0px 0px;text-align:left;transform-origin:0px 0px;width:auto;"/>
                                        <path d="m161.2 2299.1-161.2-1807.7h1771l-161.4 1807.4-725.2 201z" fill="#1572b6" style="block-size:auto;d:path(&quot;M 161.2 2299.1 L 0 491.4 H 1771 L 1609.6 2298.8 L 884.4 2499.8 Z&quot;);display:inline;fill:rgb(21, 114, 182);height:auto;inline-size:auto;list-style-type:none;overflow-x:visible;overflow-y:visible;perspective-origin:0px 0px;text-align:left;transform-origin:0px 0px;width:auto;"/>
                                        <path d="m885.5 2346.2 586-162.5 137.8-1544.5h-723.8z" fill="#33a9dc" style="block-size:auto;d:path(&quot;M 885.5 2346.2 L 1471.5 2183.7 L 1609.3 639.2 H 885.5 Z&quot;);display:inline;fill:rgb(51, 169, 220);height:auto;inline-size:auto;list-style-type:none;overflow-x:visible;overflow-y:visible;perspective-origin:0px 0px;text-align:left;transform-origin:0px 0px;width:auto;"/>
                                        <path d="m885.5 1294.1h293.4l20.2-227h-313.6v-221.6h556l-5.3 59.5-54.5 611h-496.2z" fill="#fff" style="block-size:auto;d:path(&quot;M 885.5 1294.1 H 1178.9 L 1199.1 1067.1 H 885.5 V 845.5 H 1441.5 L 1436.2 905 L 1381.7 1516 H 885.5 Z&quot;);display:inline;fill:rgb(255, 255, 255);height:auto;inline-size:auto;list-style-type:none;overflow-x:visible;overflow-y:visible;perspective-origin:0px 0px;text-align:left;transform-origin:0px 0px;width:auto;"/>
                                        <path d="m886.7 1869.9h-1l-246.9-66.7-15.8-176.8h-222.4l31.1 348.1 454.2 126.4h1.3v-231z" fill="#ebebeb" style="block-size:auto;d:path(&quot;M 886.7 1869.9 H 885.7 L 638.8 1803.2 L 623 1626.4 H 400.6 L 431.7 1974.5 L 885.9 2100.9 H 887.2 V 1869.9 Z&quot;);display:inline;fill:rgb(235, 235, 235);height:auto;inline-size:auto;list-style-type:none;overflow-x:visible;overflow-y:visible;perspective-origin:0px 0px;text-align:left;transform-origin:0px 0px;width:auto;"/>
                                        <path d="m1160.1 1506.3-26.7 296.7-247.3 66.7v231l454.5-126 3.3-37.5 38.6-431h-222.4z" fill="#fff" style="block-size:auto;d:path(&quot;M 1160.1 1506.3 L 1133.4 1803 L 886.1 1869.7 V 2100.7 L 1340.6 1974.7 L 1343.9 1937.2 L 1382.5 1506.2 H 1160.1 Z&quot;);display:inline;fill:rgb(255, 255, 255);height:auto;inline-size:auto;list-style-type:none;overflow-x:visible;overflow-y:visible;perspective-origin:0px 0px;text-align:left;transform-origin:0px 0px;width:auto;"/>
                                        <path d="m886.3 845.5v221.7h-535.4l-4.6-49.8-10.1-112.4-5.3-59.5zm-.8 448.6v221.7h-244.1l-4.3-49.8-10.1-112.4-5.3-59.5h263.7z" fill="#ebebeb" style="block-size:auto;d:path(&quot;M 886.3 845.5 V 1067.2 H 350.9 L 346.3 1017.4 L 336.2 905 L 330.9 845.5 Z M 885.5 1294.1 V 1515.8 H 641.4 L 637.1 1466 L 627 1353.6 L 621.7 1294.1 H 885.4 Z&quot;);display:inline;fill:rgb(235, 235, 235);height:auto;inline-size:auto;list-style-type:none;overflow-x:visible;overflow-y:visible;perspective-origin:0px 0px;text-align:left;transform-origin:0px 0px;width:auto;"/></svg>