<?xml version="1.0" standalone="no"?><!DOCTYPE svg PUBLIC "-//W3C//DTD SVG 1.1//EN" "http://www.w3.org/Graphics/SVG/1.1/DTD/svg11.dtd"><svg width="60" height="60" viewBox="0 0 256 256" preserveAspectRatio="xMinYMin meet" version="1.1" xmlns="http://www.w3.org/2000/svg" xmlns:xlink="http://www.w3.org/1999/xlink" style="block-size:60px;height:60px;inline-size:60px;list-style-type:none;min-block-size:auto;min-height:auto;min-inline-size:auto;min-width:auto;perspective-origin:30px 30px;text-align:left;transform-origin:30px 30px;width:60px;">
                                        <path d="M0 0h256v256H0V0z" fill="#F7DF1E" style="block-size:auto;d:path(&quot;M 0 0 H 256 V 256 H 0 V 0 Z&quot;);display:inline;fill:rgb(247, 223, 30);height:auto;inline-size:auto;list-style-type:none;overflow-x:visible;overflow-y:visible;perspective-origin:0px 0px;text-align:left;transform-origin:0px 0px;width:auto;"/>
                                        <path d="M67.312 213.932l19.59-11.856c3.78 6.701 7.218 12.371 15.465 12.371 7.905 0 12.89-3.092 12.89-15.12v-81.798h24.057v82.138c0 24.917-14.606 36.259-35.916 36.259-19.245 0-30.416-9.967-36.087-21.996M152.381 211.354l19.588-11.341c5.157 8.421 11.859 14.607 23.715 14.607 9.969 0 16.325-4.984 16.325-11.858 0-8.248-6.53-11.17-17.528-15.98l-6.013-2.58c-17.357-7.387-28.87-16.667-28.87-36.257 0-18.044 13.747-31.792 35.228-31.792 15.294 0 26.292 5.328 34.196 19.247L210.29 147.43c-4.125-7.389-8.591-10.31-15.465-10.31-7.046 0-11.514 4.468-11.514 10.31 0 7.217 4.468 10.14 14.778 14.608l6.014 2.577c20.45 8.765 31.963 17.7 31.963 37.804 0 21.654-17.012 33.51-39.867 33.51-22.339 0-36.774-10.654-43.819-24.574" style="block-size:auto;d:path(&quot;M 67.312 213.932 L 86.902 202.076 C 90.682 208.777 94.12 214.447 102.367 214.447 C 110.272 214.447 115.257 211.355 115.257 199.327 V 117.529 H 139.314 V 199.667 C 139.314 224.584 124.708 235.926 103.398 235.926 C 84.153 235.926 72.982 225.959 67.311 213.93 M 152.381 211.354 L 171.969 200.013 C 177.126 208.434 183.828 214.62 195.684 214.62 C 205.653 214.62 212.009 209.636 212.009 202.762 C 212.009 194.514 205.479 191.592 194.481 186.782 L 188.468 184.202 C 171.111 176.815 159.598 167.535 159.598 147.945 C 159.598 129.901 173.345 116.153 194.826 116.153 C 210.12 116.153 221.118 121.481 229.022 135.4 L 210.29 147.43 C 206.165 140.041 201.699 137.12 194.825 137.12 C 187.779 137.12 183.311 141.588 183.311 147.43 C 183.311 154.647 187.779 157.57 198.089 162.038 L 204.103 164.615 C 224.553 173.38 236.066 182.315 236.066 202.419 C 236.066 224.073 219.054 235.929 196.199 235.929 C 173.86 235.929 159.425 225.275 152.38 211.355&quot;);display:inline;height:auto;inline-size:auto;list-style-type:none;overflow-x:visible;overflow-y:visible;perspective-origin:0px 0px;text-align:left;transform-origin:0px 0px;width:auto;"/>
                                    </svg>