<?xml version="1.0" standalone="no"?><!DOCTYPE svg PUBLIC "-//W3C//DTD SVG 1.1//EN" "http://www.w3.org/Graphics/SVG/1.1/DTD/svg11.dtd"><svg width="132px" height="60" viewBox="0 0 512 146" version="1.1" xmlns="http://www.w3.org/2000/svg" xmlns:xlink="http://www.w3.org/1999/xlink" style="block-size:60px;height:60px;inline-size:132px;list-style-type:none;min-block-size:auto;min-height:auto;min-inline-size:auto;min-width:auto;perspective-origin:66px 30px;text-align:left;transform-origin:66px 30px;width:132px;">
                                        <g fill="none" fill-rule="evenodd" style="block-size:auto;display:inline;fill:none;fill-rule:evenodd;height:auto;inline-size:auto;list-style-type:none;overflow-x:visible;overflow-y:visible;perspective-origin:0px 0px;text-align:left;transform-origin:0px 0px;width:auto;">
                                            <path d="M476.713 60.463c-.46.092-.922 1.107-.922 1.66-.092 3.692-.184 13.474-.184 20.118 0 .185.276.554.553.554 1.384.092 4.706.184 7.567.184 3.968 0 6.275-.553 7.568-1.106 3.321-1.662 4.89-5.261 4.89-9.23 0-8.95-6.275-12.365-15.596-12.365-.646-.092-2.49-.092-3.876.185zm23.81 41.25c0-9.136-6.737-14.212-18.918-14.212-.554 0-4.43-.092-5.353.092-.277.093-.645.278-.645.555 0 6.551-.093 16.98.184 21.04.184 1.753 1.477 4.245 3.046 4.983 1.66.923 5.444 1.107 8.028 1.107 7.29 0 13.658-4.06 13.658-13.565zm-42.634-46.325c.922 0 3.69.276 10.796.276 6.737 0 12.089-.184 18.641-.184 8.028 0 19.102 2.86 19.102 14.857 0 5.906-4.153 10.613-9.597 12.92-.276.092-.276.276 0 .368 7.751 1.939 14.581 6.737 14.581 15.78 0 8.86-5.537 14.489-13.566 17.996-4.891 2.122-10.981 2.86-17.164 2.86-4.707 0-17.349-.553-24.362-.368-.738-.278.646-3.6 1.291-4.153 1.662-.093 2.953-.185 4.707-.739 2.492-.645 2.768-1.384 3.137-5.167.185-3.23.185-14.674.185-22.794 0-11.166.093-18.733 0-22.424-.092-2.86-1.107-3.784-3.137-4.338-1.57-.276-4.153-.646-6.276-.922-.462-.462 1.107-3.6 1.662-3.968zm-53.248 57.399c2.216 1.752 6.553 2.49 10.429 2.49 4.983 0 9.966-.921 14.765-5.26 4.891-4.428 8.305-11.257 8.305-22.146 0-10.429-3.968-18.919-12.089-23.901-4.614-2.862-10.52-4.06-17.349-4.06-2.03 0-3.968.092-5.167.645-.278.185-.923 1.015-.923 1.476-.185 1.846-.185 16.057-.185 24.363 0 8.582 0 20.579.185 21.963 0 1.385.645 3.507 2.03 4.43zm-20.948-57.4c1.754 0 8.49.277 11.72.277 5.815 0 9.967-.276 20.948-.276 9.228 0 16.98 2.491 22.517 7.197 6.736 5.814 10.244 13.843 10.244 23.624 0 13.935-6.368 21.964-12.736 26.578-6.366 4.706-14.672 7.474-26.484 7.474-6.275 0-17.072-.184-26.024-.277h-.092c-.461-.83.738-4.06 1.476-4.152 2.4-.277 3.046-.37 4.246-.83 1.937-.739 2.307-1.754 2.584-5.168.276-6.368.184-14.027.184-22.702 0-6.182.092-18.272-.093-22.148-.276-3.229-1.66-4.06-4.429-4.614-1.384-.276-3.23-.646-5.813-.922-.37-.647 1.291-3.507 1.752-4.06z" fill="#8E714E" style="block-size:auto;d:path(&quot;M 476.713 60.463 C 476.253 60.555 475.791 61.57 475.791 62.123 C 475.699 65.815 475.607 75.597 475.607 82.241 C 475.607 82.426 475.883 82.795 476.16 82.795 C 477.544 82.887 480.866 82.979 483.727 82.979 C 487.695 82.979 490.002 82.426 491.295 81.873 C 494.616 80.211 496.185 76.612 496.185 72.643 C 496.185 63.693 489.91 60.278 480.589 60.278 C 479.943 60.186 478.099 60.186 476.713 60.463 Z M 500.523 101.713 C 500.523 92.577 493.786 87.501 481.605 87.501 C 481.051 87.501 477.175 87.409 476.252 87.593 C 475.975 87.686 475.607 87.871 475.607 88.148 C 475.607 94.699 475.514 105.128 475.791 109.188 C 475.975 110.941 477.268 113.433 478.837 114.171 C 480.497 115.094 484.281 115.278 486.865 115.278 C 494.155 115.278 500.523 111.218 500.523 101.713 Z M 457.889 55.388 C 458.811 55.388 461.579 55.664 468.685 55.664 C 475.422 55.664 480.774 55.48 487.326 55.48 C 495.354 55.48 506.428 58.34 506.428 70.337 C 506.428 76.243 502.275 80.95 496.831 83.257 C 496.555 83.349 496.555 83.533 496.831 83.625 C 504.582 85.564 511.412 90.362 511.412 99.405 C 511.412 108.265 505.875 113.894 497.846 117.401 C 492.955 119.523 486.865 120.261 480.682 120.261 C 475.975 120.261 463.333 119.708 456.32 119.893 C 455.582 119.615 456.966 116.293 457.611 115.74 C 459.273 115.647 460.564 115.555 462.318 115.001 C 464.81 114.356 465.086 113.617 465.455 109.834 C 465.64 106.604 465.64 95.16 465.64 87.04 C 465.64 75.874 465.733 68.307 465.64 64.616 C 465.548 61.756 464.533 60.832 462.503 60.278 C 460.933 60.002 458.35 59.632 456.227 59.356 C 455.765 58.894 457.334 55.756 457.889 55.388 Z M 404.641 112.787 C 406.857 114.539 411.194 115.277 415.07 115.277 C 420.053 115.277 425.036 114.356 429.835 110.017 C 434.726 105.589 438.14 98.76 438.14 87.871 C 438.14 77.442 434.172 68.952 426.051 63.97 C 421.437 61.108 415.531 59.91 408.702 59.91 C 406.672 59.91 404.734 60.002 403.535 60.555 C 403.257 60.74 402.612 61.57 402.612 62.031 C 402.427 63.877 402.427 78.088 402.427 86.394 C 402.427 94.976 402.427 106.973 402.612 108.357 C 402.612 109.742 403.257 111.864 404.642 112.787 Z M 383.693 55.387 C 385.447 55.387 392.183 55.664 395.413 55.664 C 401.228 55.664 405.38 55.388 416.361 55.388 C 425.589 55.388 433.341 57.879 438.878 62.585 C 445.614 68.399 449.122 76.428 449.122 86.209 C 449.122 100.144 442.754 108.173 436.386 112.787 C 430.02 117.493 421.714 120.261 409.902 120.261 C 403.627 120.261 392.83 120.077 383.878 119.984 H 383.786 C 383.325 119.154 384.524 115.924 385.262 115.832 C 387.662 115.555 388.308 115.462 389.508 115.002 C 391.445 114.263 391.815 113.248 392.092 109.834 C 392.368 103.466 392.276 95.807 392.276 87.132 C 392.276 80.95 392.368 68.86 392.183 64.984 C 391.907 61.755 390.523 60.924 387.754 60.37 C 386.37 60.094 384.524 59.724 381.941 59.448 C 381.571 58.801 383.232 55.941 383.693 55.388 Z&quot;);display:inline;fill:rgb(142, 113, 78);fill-rule:evenodd;height:auto;inline-size:auto;list-style-type:none;overflow-x:visible;overflow-y:visible;perspective-origin:0px 0px;text-align:left;transform-origin:0px 0px;width:auto;"/>
                                            <path d="M272.033 116.385c-2.307-.277-3.968-.645-5.998-1.568-.277-.185-.739-1.107-.739-1.477-.184-3.23-.184-12.458-.184-18.64 0-4.984-.83-9.321-2.953-12.366-2.492-3.508-6.09-5.537-10.705-5.537-4.06 0-9.505 2.768-14.027 6.644-.092.092-.83.739-.738-.277 0-1.015.185-3.045.277-4.43.093-1.292-.646-1.937-.646-1.937-2.953 1.476-11.258 3.414-14.304 3.69-2.214.463-2.768 2.585-.46 3.323h.092c2.49.738 4.152 1.569 5.443 2.4.923.738.831 1.753.831 2.584.092 6.92.092 17.533-.184 23.347-.092 2.307-.738 3.137-2.4 3.506l.185-.092c-1.292.277-2.307.553-3.876.738-.554.554-.554 3.507 0 4.153 1.015 0 6.367-.277 10.798-.277 6.09 0 9.228.277 10.796.277.646-.738.831-3.507.462-4.153-1.754-.092-3.046-.276-4.245-.646-1.661-.37-2.123-1.199-2.216-3.137-.183-4.892-.183-15.227-.183-22.24 0-1.938.553-2.861 1.106-3.415 2.123-1.845 5.538-3.137 8.583-3.137 2.953 0 4.89.923 6.367 2.123 2.03 1.66 2.676 4.06 2.953 5.813.461 3.968.277 11.812.277 18.641 0 3.691-.277 4.614-1.66 5.075-.647.277-2.308.647-4.246.83-.646.647-.461 3.508 0 4.154 2.676 0 5.814-.277 10.428-.277 5.721 0 9.413.277 10.89.277.46-.554.645-3.23.276-3.969zm25.562-35.25c-4.89 0-7.936 3.783-7.936 9.688 0 5.999 2.676 12.92 10.243 12.92 1.292 0 3.692-.554 4.798-1.846 1.754-1.66 2.954-4.983 2.954-8.49 0-7.659-3.784-12.273-10.059-12.273zm-.646 40.787c-1.845 0-3.138.554-3.968 1.016-3.876 2.49-5.629 4.89-5.629 7.752 0 2.675 1.015 4.797 3.23 6.643 2.676 2.307 6.367 3.415 11.073 3.415 9.413 0 13.566-5.076 13.566-10.058 0-3.508-1.754-5.815-5.352-7.106-2.584-1.108-7.29-1.662-12.92-1.662zm.646 23.994c-5.629 0-9.69-1.2-13.196-3.876-3.415-2.584-4.891-6.46-4.891-9.136 0-.738.185-2.769 1.846-4.614 1.014-1.108 3.23-3.23 8.49-6.829.184-.092.276-.184.276-.37 0-.184-.185-.369-.369-.46-4.337-1.661-5.629-4.338-5.999-5.814v-.185c-.091-.554-.276-1.107.555-1.661.646-.461 1.569-1.015 2.583-1.66 1.569-.924 3.23-1.939 4.245-2.77.185-.184.185-.368.185-.553 0-.185-.185-.37-.37-.461-6.458-2.123-9.688-6.922-9.688-14.12 0-4.706 2.122-8.951 5.905-11.627 2.584-2.03 9.044-4.522 13.289-4.522h.277c4.337.092 6.736 1.015 10.15 2.215 1.846.646 3.6.922 6 .922 3.598 0 5.167-1.107 6.458-2.398.093.184.278.646.37 1.845.092 1.2-.277 2.953-1.2 4.245-.738 1.015-2.399 1.754-4.06 1.754h-.462c-1.661-.185-2.4-.37-2.4-.37l-.368.185c-.092.185 0 .369.092.646l.093.185c.184.83.553 3.321.553 3.968 0 7.567-3.045 10.888-6.275 13.38-3.138 2.307-6.736 3.783-10.797 4.153-.092 0-.46 0-1.292.092-.461 0-1.107.093-1.2.093h-.092c-.738.184-2.583 1.107-2.583 2.675 0 1.384.83 3.046 4.798 3.323.83.092 1.66.092 2.584.185 5.26.368 11.812.83 14.857 1.845 4.245 1.568 6.921 5.352 6.921 9.874 0 6.83-4.89 13.197-13.011 17.164-3.968 1.754-7.937 2.677-12.274 2.677zm52.6-64.32c-1.937 0-3.691.46-4.983 1.383-3.598 2.215-5.444 6.645-5.444 13.104 0 12.09 6.09 20.58 14.765 20.58 2.584 0 4.614-.739 6.367-2.215 2.676-2.216 4.061-6.645 4.061-12.828 0-11.996-5.999-20.025-14.765-20.025zm1.662 39.496c-15.688 0-21.317-11.535-21.317-22.332 0-7.567 3.045-13.381 9.135-17.534 4.338-2.676 9.506-4.152 14.12-4.152 11.996 0 20.394 8.582 20.394 20.948 0 8.397-3.322 15.041-9.69 19.102-3.045 2.03-8.305 3.968-12.643 3.968h.001zM187.411 81.595c-1.938 0-3.691.461-4.984 1.384-3.598 2.215-5.444 6.645-5.444 13.104 0 12.09 6.09 20.58 14.765 20.58 2.584 0 4.614-.739 6.368-2.215 2.675-2.216 4.06-6.645 4.06-12.828 0-11.996-5.906-20.025-14.765-20.025zm1.661 39.497c-15.688 0-21.317-11.535-21.317-22.332 0-7.567 3.045-13.381 9.135-17.534 4.338-2.676 9.506-4.152 14.12-4.152 11.997 0 20.394 8.582 20.394 20.948 0 8.397-3.322 15.041-9.69 19.102-2.953 2.03-8.213 3.968-12.642 3.968zm-105.478-.923c-.185-.276-.37-1.107-.277-2.122 0-.739.185-1.2.277-1.384 1.938-.278 2.953-.555 4.06-.831 1.846-.462 2.584-1.476 2.676-3.783.278-5.537.278-16.058.185-23.348v-.185c0-.83 0-1.846-1.015-2.584-1.477-.922-3.23-1.752-5.537-2.4-.83-.275-1.384-.737-1.292-1.29 0-.554.554-1.2 1.754-1.385 3.045-.277 10.98-2.214 14.118-3.599.185.184.462.739.462 1.477l-.092 1.014c-.093 1.016-.185 2.216-.185 3.415 0 .369.37.646.738.646.185 0 .37-.092.554-.185 5.906-4.614 11.258-6.275 14.026-6.275 4.523 0 8.03 2.123 10.706 6.552.184.278.369.37.646.37.184 0 .46-.092.553-.277 5.445-4.153 10.89-6.645 14.488-6.645 8.582 0 13.658 6.368 13.658 17.165 0 3.045 0 7.013-.092 10.613 0 3.229-.092 6.182-.092 8.305 0 .46.645 1.937 1.66 2.214 1.292.646 3.046.923 5.353 1.292h.092c.185.646-.184 3.045-.553 3.507-.554 0-1.385 0-2.307-.092a136.208 136.208 0 0 0-7.014-.185c-5.721 0-8.674.092-11.536.277-.183-.738-.276-2.953 0-3.507 1.662-.276 2.492-.554 3.508-.83 1.846-.554 2.307-1.385 2.4-3.784 0-1.753.368-16.703-.186-20.302-.553-3.691-3.322-8.028-9.413-8.028-2.307 0-5.905.923-9.412 3.598-.184.185-.37.646-.37.923v.093c.37 1.937.37 4.153.37 7.567v5.998c0 4.153-.093 8.029 0 10.981 0 2.031 1.2 2.492 2.215 2.862.554.091.922.184 1.384.276.83.185 1.661.37 2.953.646.185.37.185 1.569-.092 2.584-.093.554-.278.83-.37.923-3.137-.092-6.367-.185-11.073-.185-1.384 0-3.784.093-5.814.093-1.662 0-3.23.092-4.152.092-.093-.185-.278-.83-.278-1.846 0-.83.185-1.476.37-1.661.461-.092.83-.184 1.292-.184 1.106-.185 2.03-.37 2.952-.554 1.57-.461 2.123-1.292 2.215-3.322.277-4.614.554-17.81-.092-21.133-1.107-5.352-4.152-8.028-9.044-8.028-2.86 0-6.46 1.384-9.412 3.6-.462.368-.831 1.29-.831 2.121v5.445c0 6.644 0 14.95.092 18.549.093 1.106.461 2.399 2.584 2.86.462.092 1.2.277 2.123.37l1.66.276c.186.554.093 2.769-.276 3.507-.923 0-2.03-.092-3.323-.092-1.937-.093-4.429-.185-7.197-.185-3.23 0-5.537.092-7.383.185-1.292-.185-2.307-.185-3.414-.185z" fill="#442D22" style="block-size:auto;d:path(&quot;M 272.033 116.385 C 269.726 116.108 268.065 115.74 266.035 114.817 C 265.758 114.632 265.296 113.71 265.296 113.34 C 265.112 110.11 265.112 100.882 265.112 94.7 C 265.112 89.716 264.282 85.379 262.159 82.334 C 259.667 78.826 256.069 76.797 251.454 76.797 C 247.394 76.797 241.949 79.565 237.427 83.441 C 237.335 83.533 236.597 84.18 236.689 83.164 C 236.689 82.149 236.874 80.119 236.966 78.734 C 237.059 77.442 236.32 76.797 236.32 76.797 C 233.367 78.273 225.062 80.211 222.016 80.487 C 219.802 80.95 219.248 83.072 221.556 83.81 H 221.648 C 224.138 84.548 225.8 85.379 227.091 86.21 C 228.014 86.948 227.922 87.963 227.922 88.794 C 228.014 95.714 228.014 106.327 227.738 112.141 C 227.646 114.448 227 115.278 225.338 115.647 L 225.523 115.555 C 224.231 115.832 223.216 116.108 221.647 116.293 C 221.093 116.847 221.093 119.8 221.647 120.446 C 222.662 120.446 228.014 120.169 232.445 120.169 C 238.535 120.169 241.673 120.446 243.241 120.446 C 243.887 119.708 244.072 116.939 243.703 116.293 C 241.949 116.201 240.657 116.017 239.458 115.647 C 237.797 115.277 237.335 114.448 237.242 112.51 C 237.059 107.618 237.059 97.283 237.059 90.27 C 237.059 88.332 237.612 87.409 238.165 86.855 C 240.288 85.01 243.703 83.718 246.748 83.718 C 249.701 83.718 251.638 84.641 253.115 85.841 C 255.145 87.501 255.791 89.901 256.068 91.654 C 256.529 95.622 256.345 103.466 256.345 110.295 C 256.345 113.986 256.068 114.909 254.685 115.37 C 254.038 115.647 252.377 116.017 250.439 116.2 C 249.793 116.847 249.978 119.708 250.439 120.354 C 253.115 120.354 256.253 120.077 260.867 120.077 C 266.588 120.077 270.28 120.354 271.757 120.354 C 272.217 119.8 272.402 117.124 272.033 116.385 Z M 297.595 81.135 C 292.705 81.135 289.659 84.918 289.659 90.823 C 289.659 96.822 292.335 103.743 299.902 103.743 C 301.194 103.743 303.594 103.189 304.7 101.897 C 306.454 100.237 307.654 96.914 307.654 93.407 C 307.654 85.748 303.87 81.134 297.595 81.134 Z M 296.949 121.922 C 295.104 121.922 293.811 122.476 292.981 122.938 C 289.105 125.428 287.352 127.828 287.352 130.69 C 287.352 133.365 288.367 135.487 290.582 137.333 C 293.258 139.64 296.949 140.748 301.655 140.748 C 311.068 140.748 315.221 135.672 315.221 130.69 C 315.221 127.182 313.467 124.875 309.869 123.584 C 307.285 122.476 302.579 121.922 296.949 121.922 Z M 297.595 145.916 C 291.966 145.916 287.905 144.716 284.399 142.04 C 280.984 139.456 279.508 135.58 279.508 132.904 C 279.508 132.166 279.693 130.135 281.354 128.29 C 282.368 127.182 284.584 125.06 289.844 121.461 C 290.028 121.369 290.12 121.277 290.12 121.091 C 290.12 120.907 289.935 120.722 289.751 120.631 C 285.414 118.97 284.122 116.293 283.752 114.817 V 114.632 C 283.661 114.078 283.476 113.525 284.307 112.971 C 284.953 112.51 285.876 111.956 286.89 111.311 C 288.459 110.387 290.12 109.372 291.135 108.541 C 291.32 108.357 291.32 108.173 291.32 107.988 C 291.32 107.803 291.135 107.618 290.95 107.527 C 284.492 105.404 281.262 100.605 281.262 93.407 C 281.262 88.701 283.384 84.456 287.167 81.78 C 289.751 79.75 296.211 77.258 300.456 77.258 H 300.733 C 305.07 77.35 307.469 78.273 310.883 79.473 C 312.729 80.119 314.483 80.395 316.883 80.395 C 320.481 80.395 322.05 79.288 323.341 77.997 C 323.434 78.181 323.619 78.643 323.711 79.842 C 323.803 81.042 323.434 82.795 322.511 84.087 C 321.773 85.102 320.112 85.841 318.451 85.841 H 317.989 C 316.328 85.656 315.589 85.471 315.589 85.471 L 315.221 85.656 C 315.129 85.841 315.221 86.025 315.313 86.302 L 315.406 86.487 C 315.59 87.317 315.959 89.808 315.959 90.455 C 315.959 98.022 312.914 101.343 309.684 103.835 C 306.546 106.142 302.948 107.618 298.887 107.988 C 298.795 107.988 298.427 107.988 297.595 108.08 C 297.134 108.08 296.488 108.173 296.395 108.173 H 296.303 C 295.565 108.357 293.72 109.28 293.72 110.848 C 293.72 112.232 294.55 113.894 298.518 114.171 C 299.348 114.263 300.178 114.263 301.102 114.356 C 306.362 114.724 312.914 115.186 315.959 116.201 C 320.204 117.769 322.88 121.553 322.88 126.075 C 322.88 132.905 317.99 139.272 309.869 143.239 C 305.901 144.993 301.932 145.916 297.595 145.916 Z M 350.195 81.596 C 348.258 81.596 346.504 82.056 345.212 82.979 C 341.614 85.194 339.768 89.624 339.768 96.083 C 339.768 108.173 345.858 116.663 354.533 116.663 C 357.117 116.663 359.147 115.924 360.9 114.448 C 363.576 112.232 364.961 107.803 364.961 101.62 C 364.961 89.624 358.962 81.595 350.196 81.595 Z M 351.857 121.092 C 336.169 121.092 330.54 109.557 330.54 98.76 C 330.54 91.193 333.585 85.379 339.675 81.226 C 344.013 78.55 349.181 77.074 353.795 77.074 C 365.791 77.074 374.189 85.656 374.189 98.022 C 374.189 106.419 370.867 113.063 364.499 117.124 C 361.454 119.154 356.194 121.092 351.856 121.092 H 351.857 Z M 187.411 81.595 C 185.473 81.595 183.72 82.056 182.427 82.979 C 178.829 85.194 176.983 89.624 176.983 96.083 C 176.983 108.173 183.073 116.663 191.748 116.663 C 194.332 116.663 196.362 115.924 198.116 114.448 C 200.791 112.232 202.176 107.803 202.176 101.62 C 202.176 89.624 196.27 81.595 187.411 81.595 Z M 189.072 121.092 C 173.384 121.092 167.755 109.557 167.755 98.76 C 167.755 91.193 170.8 85.379 176.89 81.226 C 181.228 78.55 186.396 77.074 191.01 77.074 C 203.007 77.074 211.404 85.656 211.404 98.022 C 211.404 106.419 208.082 113.063 201.714 117.124 C 198.761 119.154 193.501 121.092 189.072 121.092 Z M 83.594 120.169 C 83.409 119.893 83.224 119.062 83.317 118.047 C 83.317 117.308 83.502 116.847 83.594 116.663 C 85.532 116.385 86.547 116.108 87.654 115.832 C 89.5 115.37 90.238 114.356 90.33 112.049 C 90.608 106.512 90.608 95.991 90.515 88.701 V 88.516 C 90.515 87.686 90.515 86.67 89.5 85.932 C 88.023 85.01 86.27 84.18 83.963 83.532 C 83.133 83.257 82.579 82.795 82.671 82.242 C 82.671 81.688 83.225 81.042 84.425 80.857 C 87.47 80.58 95.405 78.643 98.543 77.258 C 98.728 77.442 99.005 77.997 99.005 78.735 L 98.913 79.749 C 98.82 80.765 98.728 81.965 98.728 83.164 C 98.728 83.533 99.098 83.81 99.466 83.81 C 99.651 83.81 99.836 83.718 100.02 83.625 C 105.926 79.011 111.278 77.35 114.046 77.35 C 118.569 77.35 122.076 79.473 124.752 83.902 C 124.936 84.18 125.121 84.272 125.398 84.272 C 125.582 84.272 125.858 84.18 125.951 83.995 C 131.396 79.842 136.841 77.35 140.439 77.35 C 149.021 77.35 154.097 83.718 154.097 94.515 C 154.097 97.56 154.097 101.528 154.005 105.128 C 154.005 108.357 153.913 111.31 153.913 113.433 C 153.913 113.893 154.558 115.37 155.573 115.647 C 156.865 116.293 158.619 116.57 160.926 116.939 H 161.018 C 161.203 117.585 160.834 119.984 160.465 120.446 C 159.911 120.446 159.08 120.446 158.158 120.354 A 136.208 136.208 0 0 0 151.144 120.169 C 145.423 120.169 142.47 120.261 139.608 120.446 C 139.425 119.708 139.332 117.493 139.608 116.939 C 141.27 116.663 142.1 116.385 143.116 116.109 C 144.962 115.555 145.423 114.724 145.516 112.325 C 145.516 110.572 145.884 95.622 145.33 92.023 C 144.777 88.332 142.008 83.995 135.917 83.995 C 133.61 83.995 130.012 84.918 126.505 87.593 C 126.321 87.778 126.135 88.239 126.135 88.516 V 88.609 C 126.505 90.546 126.505 92.762 126.505 96.176 V 102.174 C 126.505 106.327 126.412 110.203 126.505 113.155 C 126.505 115.186 127.705 115.647 128.72 116.017 C 129.274 116.108 129.642 116.201 130.104 116.293 C 130.934 116.478 131.765 116.663 133.057 116.939 C 133.242 117.309 133.242 118.508 132.965 119.523 C 132.872 120.077 132.687 120.353 132.595 120.446 C 129.458 120.354 126.228 120.261 121.522 120.261 C 120.138 120.261 117.738 120.354 115.708 120.354 C 114.046 120.354 112.478 120.446 111.556 120.446 C 111.463 120.261 111.278 119.616 111.278 118.6 C 111.278 117.77 111.463 117.124 111.648 116.939 C 112.109 116.847 112.478 116.755 112.94 116.755 C 114.046 116.57 114.97 116.385 115.892 116.201 C 117.462 115.74 118.015 114.909 118.107 112.879 C 118.384 108.265 118.661 95.069 118.015 91.746 C 116.908 86.394 113.863 83.718 108.971 83.718 C 106.111 83.718 102.511 85.102 99.559 87.318 C 99.097 87.686 98.728 88.608 98.728 89.439 V 94.884 C 98.728 101.528 98.728 109.834 98.82 113.433 C 98.913 114.539 99.281 115.832 101.404 116.293 C 101.866 116.385 102.604 116.57 103.527 116.663 L 105.187 116.939 C 105.373 117.493 105.28 119.708 104.911 120.446 C 103.988 120.446 102.881 120.354 101.588 120.354 C 99.651 120.261 97.159 120.169 94.391 120.169 C 91.161 120.169 88.854 120.261 87.008 120.354 C 85.716 120.169 84.701 120.169 83.594 120.169 Z&quot;);display:inline;fill:rgb(68, 45, 34);fill-rule:evenodd;height:auto;inline-size:auto;list-style-type:none;overflow-x:visible;overflow-y:visible;perspective-origin:0px 0px;text-align:left;transform-origin:0px 0px;width:auto;"/>
                                            <path d="M35.053 142.317l-3.783-1.293s.462-19.286-6.46-20.67c-4.613-5.353.74-227.013 17.35-.739 0 0-5.722 2.86-6.737 7.752-1.108 4.799-.37 14.95-.37 14.95z" fill="#FFF" style="block-size:auto;d:path(&quot;M 35.053 142.317 L 31.27 141.024 S 31.732 121.738 24.81 120.354 C 20.197 115.001 25.55 -106.659 42.16 119.615 C 42.16 119.615 36.438 122.475 35.423 127.367 C 34.315 132.166 35.053 142.317 35.053 142.317 Z&quot;);display:inline;fill:rgb(255, 255, 255);fill-rule:evenodd;height:auto;inline-size:auto;list-style-type:none;overflow-x:visible;overflow-y:visible;perspective-origin:0px 0px;text-align:left;transform-origin:0px 0px;width:auto;"/>
                                            <path d="M35.053 142.317l-3.783-1.293s.462-19.286-6.46-20.67c-4.613-5.353.74-227.013 17.35-.739 0 0-5.722 2.86-6.737 7.752-1.108 4.799-.37 14.95-.37 14.95z" fill="#A6A385" style="block-size:auto;d:path(&quot;M 35.053 142.317 L 31.27 141.024 S 31.732 121.738 24.81 120.354 C 20.197 115.001 25.55 -106.659 42.16 119.615 C 42.16 119.615 36.438 122.475 35.423 127.367 C 34.315 132.166 35.053 142.317 35.053 142.317 Z&quot;);display:inline;fill:rgb(166, 163, 133);fill-rule:evenodd;height:auto;inline-size:auto;list-style-type:none;overflow-x:visible;overflow-y:visible;perspective-origin:0px 0px;text-align:left;transform-origin:0px 0px;width:auto;"/>
                                            <path d="M37.084 123.676s33.13-21.779 25.377-67.09c-7.474-32.943-25.1-43.74-27.038-47.893C33.301 5.74 31.27.573 31.27.573l1.385 91.634c0 .093-2.861 28.054 4.43 31.47" fill="#FFF" style="block-size:auto;d:path(&quot;M 37.084 123.676 S 70.214 101.897 62.461 56.586 C 54.987 23.643 37.361 12.846 35.423 8.693 C 33.301 5.74 31.27 0.573 31.27 0.573 L 32.655 92.207 C 32.655 92.3 29.794 120.261 37.085 123.677&quot;);display:inline;fill:rgb(255, 255, 255);fill-rule:evenodd;height:auto;inline-size:auto;list-style-type:none;overflow-x:visible;overflow-y:visible;perspective-origin:0px 0px;text-align:left;transform-origin:0px 0px;width:auto;"/>
                                            <path d="M37.084 123.676s33.13-21.779 25.377-67.09c-7.474-32.943-25.1-43.74-27.038-47.893C33.301 5.74 31.27.573 31.27.573l1.385 91.634c0 .093-2.861 28.054 4.43 31.47" fill="#499D4A" style="block-size:auto;d:path(&quot;M 37.084 123.676 S 70.214 101.897 62.461 56.586 C 54.987 23.643 37.361 12.846 35.423 8.693 C 33.301 5.74 31.27 0.573 31.27 0.573 L 32.655 92.207 C 32.655 92.3 29.794 120.261 37.085 123.677&quot;);display:inline;fill:rgb(73, 157, 74);fill-rule:evenodd;height:auto;inline-size:auto;list-style-type:none;overflow-x:visible;overflow-y:visible;perspective-origin:0px 0px;text-align:left;transform-origin:0px 0px;width:auto;"/>
                                            <path d="M29.333 124.875S-1.767 103.65.079 66.277C1.832 28.903 23.795 10.539 28.04 7.217c2.769-2.953 2.861-4.061 3.046-7.014 1.938 4.153 1.569 62.106 1.845 68.934.83 26.3-1.476 50.756-3.598 55.738z" fill="#FFF" style="block-size:auto;d:path(&quot;M 29.333 124.875 S -1.767 103.65 0.079 66.277 C 1.832 28.903 23.795 10.539 28.04 7.217 C 30.809 4.264 30.901 3.156 31.086 0.203 C 33.024 4.356 32.655 62.309 32.931 69.137 C 33.761 95.437 31.455 119.893 29.333 124.875 Z&quot;);display:inline;fill:rgb(255, 255, 255);fill-rule:evenodd;height:auto;inline-size:auto;list-style-type:none;overflow-x:visible;overflow-y:visible;perspective-origin:0px 0px;text-align:left;transform-origin:0px 0px;width:auto;"/>
                                            <path d="M29.333 124.875S-1.767 103.65.079 66.277C1.832 28.903 23.795 10.539 28.04 7.217c2.769-2.953 2.861-4.061 3.046-7.014 1.938 4.153 1.569 62.106 1.845 68.934.83 26.3-1.476 50.756-3.598 55.738z" fill="#58AA50" style="block-size:auto;d:path(&quot;M 29.333 124.875 S -1.767 103.65 0.079 66.277 C 1.832 28.903 23.795 10.539 28.04 7.217 C 30.809 4.264 30.901 3.156 31.086 0.203 C 33.024 4.356 32.655 62.309 32.931 69.137 C 33.761 95.437 31.455 119.893 29.333 124.875 Z&quot;);display:inline;fill:rgb(88, 170, 80);fill-rule:evenodd;height:auto;inline-size:auto;list-style-type:none;overflow-x:visible;overflow-y:visible;perspective-origin:0px 0px;text-align:left;transform-origin:0px 0px;width:auto;"/>
                                        </g>
                                    </svg>