<?xml version="1.0" standalone="no"?><!DOCTYPE svg PUBLIC "-//W3C//DTD SVG 1.1//EN" "http://www.w3.org/Graphics/SVG/1.1/DTD/svg11.dtd"><svg width="132" height="60" viewBox="0 0 512 145" preserveAspectRatio="xMinYMin meet" version="1.1" xmlns="http://www.w3.org/2000/svg" xmlns:xlink="http://www.w3.org/1999/xlink" style="block-size:60px;height:60px;inline-size:132px;list-style-type:none;min-block-size:auto;min-height:auto;min-inline-size:auto;min-width:auto;perspective-origin:66px 30px;text-align:left;transform-origin:66px 30px;width:132px;">
                                        <g fill="#83CD29" style="block-size:auto;display:inline;fill:rgb(131, 205, 41);height:auto;inline-size:auto;list-style-type:none;overflow-x:visible;overflow-y:visible;perspective-origin:0px 0px;text-align:left;transform-origin:0px 0px;width:auto;">
                                            <path d="M471.05 51.611c-1.244 0-2.454.257-3.525.863l-33.888 19.57c-2.193 1.264-3.526 3.65-3.526 6.189v39.069c0 2.537 1.333 4.92 3.526 6.187l8.85 5.109c4.3 2.119 5.885 2.086 7.842 2.086 6.366 0 10.001-3.863 10.001-10.576V81.542c0-.545-.472-.935-1.007-.935h-4.245c-.544 0-1.007.39-1.007.935v38.566c0 2.975-3.1 5.968-8.13 3.453l-9.21-5.396c-.326-.177-.576-.49-.576-.863v-39.07c0-.37.247-.747.576-.935L470.547 57.8a.998.998 0 0 1 1.007 0l33.817 19.498c.322.194.576.553.576.936v39.069c0 .373-.188.755-.504.935l-33.889 19.498c-.29.173-.69.173-1.007 0l-8.706-5.18a.905.905 0 0 0-.863 0c-2.403 1.362-2.855 1.52-5.109 2.302-.555.194-1.398.495.288 1.44l11.368 6.69a6.995 6.995 0 0 0 3.526.936 6.949 6.949 0 0 0 3.525-.935l33.889-19.499c2.193-1.275 3.525-3.65 3.525-6.187v-39.07c0-2.538-1.332-4.92-3.525-6.187l-33.889-19.57c-1.062-.607-2.28-.864-3.525-.864z" style="block-size:auto;d:path(&quot;M 471.05 51.611 C 469.806 51.611 468.596 51.868 467.525 52.474 L 433.637 72.044 C 431.444 73.308 430.111 75.694 430.111 78.233 V 117.302 C 430.111 119.839 431.444 122.222 433.637 123.489 L 442.487 128.598 C 446.787 130.717 448.372 130.684 450.329 130.684 C 456.695 130.684 460.33 126.821 460.33 120.108 V 81.542 C 460.33 80.997 459.858 80.607 459.323 80.607 H 455.078 C 454.534 80.607 454.071 80.997 454.071 81.542 V 120.108 C 454.071 123.083 450.971 126.076 445.941 123.561 L 436.731 118.165 C 436.405 117.988 436.155 117.675 436.155 117.302 V 78.232 C 436.155 77.862 436.402 77.485 436.731 77.297 L 470.547 57.8 A 0.998 0.998 0 0 1 471.554 57.8 L 505.371 77.298 C 505.693 77.492 505.947 77.851 505.947 78.234 V 117.303 C 505.947 117.676 505.759 118.058 505.443 118.238 L 471.554 137.736 C 471.264 137.909 470.864 137.909 470.547 137.736 L 461.841 132.556 A 0.905 0.905 0 0 0 460.978 132.556 C 458.575 133.918 458.123 134.076 455.869 134.858 C 455.314 135.052 454.471 135.353 456.157 136.298 L 467.525 142.988 A 6.995 6.995 0 0 0 471.051 143.924 A 6.949 6.949 0 0 0 474.576 142.989 L 508.465 123.49 C 510.658 122.215 511.99 119.84 511.99 117.303 V 78.233 C 511.99 75.695 510.658 73.313 508.465 72.046 L 474.576 52.476 C 473.514 51.869 472.296 51.612 471.051 51.612 Z&quot;);display:inline;fill:rgb(131, 205, 41);height:auto;inline-size:auto;list-style-type:none;overflow-x:visible;overflow-y:visible;perspective-origin:0px 0px;text-align:left;transform-origin:0px 0px;width:auto;"/>
                                            <path d="M480.116 79.528c-9.65 0-15.397 4.107-15.397 10.937 0 7.408 5.704 9.444 14.966 10.36 11.08 1.085 11.943 2.712 11.943 4.893 0 3.783-3.016 5.396-10.144 5.396-8.957 0-10.925-2.236-11.584-6.691-.078-.478-.447-.864-.936-.864h-4.389c-.54 0-1.007.466-1.007 1.008 0 5.703 3.102 12.447 17.916 12.447 10.723 0 16.908-4.209 16.908-11.584 0-7.31-4.996-9.273-15.398-10.648-10.51-1.391-11.512-2.072-11.512-4.533 0-2.032.85-4.75 8.634-4.75 6.954 0 9.524 1.5 10.577 6.189.092.44.48.791.935.791h4.39c.27 0 .532-.166.719-.36.184-.207.314-.44.288-.719-.68-8.074-6.064-11.872-16.909-11.872z" style="block-size:auto;d:path(&quot;M 480.116 79.528 C 470.466 79.528 464.719 83.635 464.719 90.465 C 464.719 97.873 470.423 99.909 479.685 100.825 C 490.765 101.91 491.628 103.537 491.628 105.718 C 491.628 109.501 488.612 111.114 481.484 111.114 C 472.527 111.114 470.559 108.878 469.9 104.423 C 469.822 103.945 469.453 103.559 468.964 103.559 H 464.575 C 464.035 103.559 463.568 104.025 463.568 104.567 C 463.568 110.27 466.67 117.014 481.484 117.014 C 492.207 117.014 498.392 112.805 498.392 105.43 C 498.392 98.12 493.396 96.157 482.994 94.782 C 472.484 93.391 471.482 92.71 471.482 90.249 C 471.482 88.217 472.332 85.499 480.116 85.499 C 487.07 85.499 489.64 86.999 490.693 91.688 C 490.785 92.128 491.173 92.479 491.628 92.479 H 496.018 C 496.288 92.479 496.55 92.313 496.737 92.119 C 496.921 91.912 497.051 91.679 497.025 91.4 C 496.345 83.326 490.961 79.528 480.116 79.528 Z&quot;);display:inline;fill:rgb(131, 205, 41);height:auto;inline-size:auto;list-style-type:none;overflow-x:visible;overflow-y:visible;perspective-origin:0px 0px;text-align:left;transform-origin:0px 0px;width:auto;"/>
                                        </g>
                                        <path d="M271.821.383a2.181 2.181 0 0 0-1.08.287 2.18 2.18 0 0 0-1.079 1.871v55.042c0 .54-.251 1.024-.719 1.295a1.501 1.501 0 0 1-1.511 0l-8.994-5.18a4.31 4.31 0 0 0-4.317 0l-35.903 20.721c-1.342.775-2.158 2.264-2.158 3.814v41.443c0 1.548.817 2.966 2.158 3.741l35.903 20.722a4.3 4.3 0 0 0 4.317 0l35.903-20.722a4.308 4.308 0 0 0 2.159-3.741V16.356a4.386 4.386 0 0 0-2.23-3.814L272.9.598c-.335-.187-.707-.22-1.079-.215zM40.861 52.115c-.684.027-1.328.147-1.942.503L3.015 73.34a4.3 4.3 0 0 0-2.158 3.741L.929 132.7c0 .773.399 1.492 1.079 1.87a2.096 2.096 0 0 0 2.159 0l21.297-12.231c1.349-.802 2.23-2.196 2.23-3.742V92.623c0-1.55.815-2.972 2.159-3.742l9.065-5.252a4.251 4.251 0 0 1 2.159-.576c.74 0 1.5.185 2.158.576l9.066 5.252a4.296 4.296 0 0 1 2.159 3.742v25.973c0 1.546.89 2.95 2.23 3.742l21.297 12.232a2.096 2.096 0 0 0 2.159 0 2.164 2.164 0 0 0 1.08-1.871l.07-55.618a4.28 4.28 0 0 0-2.158-3.741L43.235 52.618c-.607-.356-1.253-.475-1.942-.503h-.432zm322.624.503c-.75 0-1.485.19-2.158.576l-35.903 20.722a4.306 4.306 0 0 0-2.159 3.741V119.1c0 1.559.878 2.971 2.23 3.742l35.616 20.29c1.315.75 2.921.807 4.245.07l21.585-12.015c.685-.38 1.148-1.09 1.151-1.87a2.126 2.126 0 0 0-1.079-1.871l-36.119-20.722c-.676-.386-1.151-1.167-1.151-1.943v-12.95c0-.775.48-1.485 1.151-1.871l11.224-6.476a2.155 2.155 0 0 1 2.159 0L375.5 89.96a2.152 2.152 0 0 1 1.08 1.87v10.217a2.15 2.15 0 0 0 1.079 1.87c.673.389 1.487.39 2.158 0L401.331 91.4a4.325 4.325 0 0 0 2.159-3.742v-10c0-1.545-.82-2.966-2.159-3.742l-35.687-20.722a4.279 4.279 0 0 0-2.159-.575zm-107.35 30.939c.188 0 .408.046.576.143l12.304 7.123c.334.193.576.55.576.935v14.246c0 .387-.24.743-.576.936l-12.304 7.123a1.088 1.088 0 0 1-1.079 0l-12.303-7.123c-.335-.194-.576-.549-.576-.936V91.758c0-.386.242-.74.576-.935l12.303-7.122a.948.948 0 0 1 .504-.143v-.001z" fill="#404137" style="block-size:auto;d:path(&quot;M 271.821 0.383 A 2.181 2.181 0 0 0 270.741 0.67 A 2.18 2.18 0 0 0 269.662 2.541 V 57.583 C 269.662 58.123 269.411 58.607 268.943 58.878 A 1.501 1.501 0 0 1 267.432 58.878 L 258.438 53.698 A 4.31 4.31 0 0 0 254.121 53.698 L 218.218 74.419 C 216.876 75.194 216.06 76.683 216.06 78.233 V 119.676 C 216.06 121.224 216.877 122.642 218.218 123.417 L 254.121 144.139 A 4.3 4.3 0 0 0 258.438 144.139 L 294.341 123.417 A 4.308 4.308 0 0 0 296.5 119.676 V 16.356 A 4.386 4.386 0 0 0 294.27 12.542 L 272.9 0.598 C 272.565 0.411 272.193 0.378 271.821 0.383 Z M 40.861 52.115 C 40.177 52.142 39.533 52.262 38.919 52.618 L 3.015 73.34 A 4.3 4.3 0 0 0 0.857 77.081 L 0.929 132.7 C 0.929 133.473 1.328 134.192 2.008 134.57 A 2.096 2.096 0 0 0 4.167 134.57 L 25.464 122.339 C 26.813 121.537 27.694 120.143 27.694 118.597 V 92.623 C 27.694 91.073 28.509 89.651 29.853 88.881 L 38.918 83.629 A 4.251 4.251 0 0 1 41.077 83.053 C 41.817 83.053 42.577 83.238 43.235 83.629 L 52.301 88.881 A 4.296 4.296 0 0 1 54.46 92.623 V 118.596 C 54.46 120.142 55.35 121.546 56.69 122.338 L 77.987 134.57 A 2.096 2.096 0 0 0 80.146 134.57 A 2.164 2.164 0 0 0 81.226 132.699 L 81.296 77.081 A 4.28 4.28 0 0 0 79.138 73.34 L 43.235 52.618 C 42.628 52.262 41.982 52.143 41.293 52.115 H 40.861 Z M 363.485 52.618 C 362.735 52.618 362 52.808 361.327 53.194 L 325.424 73.916 A 4.306 4.306 0 0 0 323.265 77.657 V 119.1 C 323.265 120.659 324.143 122.071 325.495 122.842 L 361.111 143.132 C 362.426 143.882 364.032 143.939 365.356 143.202 L 386.941 131.187 C 387.626 130.807 388.089 130.097 388.092 129.317 A 2.126 2.126 0 0 0 387.013 127.446 L 350.894 106.724 C 350.218 106.338 349.743 105.557 349.743 104.781 V 91.831 C 349.743 91.056 350.223 90.346 350.894 89.96 L 362.118 83.484 A 2.155 2.155 0 0 1 364.277 83.484 L 375.5 89.96 A 2.152 2.152 0 0 1 376.58 91.83 V 102.047 A 2.15 2.15 0 0 0 377.659 103.917 C 378.332 104.306 379.146 104.307 379.817 103.917 L 401.331 91.4 A 4.325 4.325 0 0 0 403.49 87.658 V 77.658 C 403.49 76.113 402.67 74.692 401.331 73.916 L 365.644 53.194 A 4.279 4.279 0 0 0 363.485 52.619 Z M 256.135 83.557 C 256.323 83.557 256.543 83.603 256.711 83.7 L 269.015 90.823 C 269.349 91.016 269.591 91.373 269.591 91.758 V 106.004 C 269.591 106.391 269.351 106.747 269.015 106.94 L 256.711 114.063 A 1.088 1.088 0 0 1 255.632 114.063 L 243.329 106.94 C 242.994 106.746 242.753 106.391 242.753 106.004 V 91.758 C 242.753 91.372 242.995 91.018 243.329 90.823 L 255.632 83.701 A 0.948 0.948 0 0 1 256.136 83.558 V 83.557 Z&quot;);display:inline;fill:rgb(64, 65, 55);height:auto;inline-size:auto;list-style-type:none;overflow-x:visible;overflow-y:visible;perspective-origin:0px 0px;text-align:left;transform-origin:0px 0px;width:auto;"/>
                                        <path d="M148.714 52.402c-.748 0-1.488.19-2.158.576l-35.903 20.65c-1.343.773-2.159 2.265-2.159 3.813v41.443c0 1.55.817 2.966 2.159 3.742l35.903 20.721a4.297 4.297 0 0 0 4.317 0l35.903-20.721a4.308 4.308 0 0 0 2.158-3.742V77.441c0-1.55-.816-3.04-2.158-3.813l-35.903-20.65a4.297 4.297 0 0 0-2.159-.576zM363.413 89.385c-.143 0-.302 0-.431.072l-6.907 4.029a.84.84 0 0 0-.432.72v7.914c0 .298.172.571.432.72l6.907 3.957c.259.15.535.15.791 0l6.907-3.958a.846.846 0 0 0 .432-.719v-7.915a.846.846 0 0 0-.432-.719l-6.907-4.03c-.128-.075-.216-.07-.36-.07z" fill="#83CD29" style="block-size:auto;d:path(&quot;M 148.714 52.402 C 147.966 52.402 147.226 52.592 146.556 52.978 L 110.653 73.628 C 109.31 74.401 108.494 75.893 108.494 77.441 V 118.884 C 108.494 120.434 109.311 121.85 110.653 122.626 L 146.556 143.347 A 4.297 4.297 0 0 0 150.873 143.347 L 186.776 122.626 A 4.308 4.308 0 0 0 188.934 118.884 V 77.441 C 188.934 75.891 188.118 74.401 186.776 73.628 L 150.873 52.978 A 4.297 4.297 0 0 0 148.714 52.402 Z M 363.413 89.385 C 363.27 89.385 363.111 89.385 362.982 89.457 L 356.075 93.486 A 0.84 0.84 0 0 0 355.643 94.206 V 102.12 C 355.643 102.418 355.815 102.691 356.075 102.84 L 362.982 106.797 C 363.241 106.947 363.517 106.947 363.773 106.797 L 370.68 102.839 A 0.846 0.846 0 0 0 371.112 102.12 V 94.205 A 0.846 0.846 0 0 0 370.68 93.486 L 363.773 89.456 C 363.645 89.381 363.557 89.386 363.413 89.386 Z&quot;);display:inline;fill:rgb(131, 205, 41);height:auto;inline-size:auto;list-style-type:none;overflow-x:visible;overflow-y:visible;perspective-origin:0px 0px;text-align:left;transform-origin:0px 0px;width:auto;"/>
                                    </svg>