<?xml version="1.0" standalone="no"?><!DOCTYPE svg PUBLIC "-//W3C//DTD SVG 1.1//EN" "http://www.w3.org/Graphics/SVG/1.1/DTD/svg11.dtd"><svg width="60" height="60" viewBox="0 0 256 256" preserveAspectRatio="xMinYMin meet" version="1.1" xmlns="http://www.w3.org/2000/svg" xmlns:xlink="http://www.w3.org/1999/xlink" style="block-size:60px;height:60px;inline-size:60px;list-style-type:none;min-block-size:auto;min-height:auto;min-inline-size:auto;min-width:auto;perspective-origin:30px 30px;text-align:left;transform-origin:30px 30px;width:60px;">
                                        <path d="M.754 114.75c0 19.215 18.763 37.152 48.343 47.263-5.907 29.737-1.058 53.706 15.136 63.045 16.645 9.6 41.443 2.955 64.98-17.62 22.943 19.744 46.13 27.514 62.31 18.148 16.63-9.627 21.687-35.221 15.617-65.887 30.81-10.186 48.044-25.481 48.044-44.949 0-18.769-18.797-35.006-47.979-45.052 6.535-31.933.998-55.32-15.867-65.045-16.259-9.376-39.716-1.204-62.996 19.056C104.122 2.205 80.897-4.36 64.05 5.392 47.806 14.795 43.171 39.2 49.097 69.487 20.515 79.452.754 96.057.754 114.75z" fill="#FFF" style="block-size:auto;d:path(&quot;M 0.754 114.75 C 0.754 133.965 19.517 151.902 49.097 162.013 C 43.19 191.75 48.039 215.719 64.233 225.058 C 80.878 234.658 105.676 228.013 129.213 207.438 C 152.156 227.182 175.343 234.952 191.523 225.586 C 208.153 215.959 213.21 190.365 207.14 159.699 C 237.95 149.513 255.184 134.218 255.184 114.75 C 255.184 95.981 236.387 79.744 207.205 69.698 C 213.74 37.765 208.203 14.378 191.338 4.653 C 175.079 -4.723 151.622 3.449 128.342 23.709 C 104.122 2.205 80.897 -4.36 64.05 5.392 C 47.806 14.795 43.171 39.2 49.097 69.487 C 20.515 79.452 0.754 96.057 0.754 114.75 Z&quot;);display:inline;fill:rgb(255, 255, 255);height:auto;inline-size:auto;list-style-type:none;overflow-x:visible;overflow-y:visible;perspective-origin:0px 0px;text-align:left;transform-origin:0px 0px;width:auto;"/>
                                        <path d="M201.025 79.674a151.364 151.364 0 0 0-7.274-2.292 137.5 137.5 0 0 0 1.124-4.961c5.506-26.728 1.906-48.26-10.388-55.348-11.787-6.798-31.065.29-50.535 17.233a151.136 151.136 0 0 0-5.626 5.163 137.573 137.573 0 0 0-3.744-3.458c-20.405-18.118-40.858-25.752-53.139-18.643-11.776 6.817-15.264 27.06-10.307 52.39a150.91 150.91 0 0 0 1.67 7.484c-2.894.822-5.689 1.698-8.363 2.63-23.922 8.34-39.2 21.412-39.2 34.97 0 14.004 16.4 28.05 41.318 36.566a128.44 128.44 0 0 0 6.11 1.91 147.813 147.813 0 0 0-1.775 8.067c-4.726 24.89-1.035 44.653 10.71 51.428 12.131 6.995 32.491-.195 52.317-17.525 1.567-1.37 3.14-2.823 4.715-4.346a148.34 148.34 0 0 0 6.108 5.573c19.204 16.525 38.17 23.198 49.905 16.405 12.12-7.016 16.058-28.247 10.944-54.078-.39-1.973-.845-3.988-1.355-6.04 1.43-.422 2.833-.858 4.202-1.312 25.904-8.582 42.757-22.457 42.757-36.648 0-13.607-15.77-26.767-40.174-35.168z" fill="#53C1DE" style="block-size:auto;d:path(&quot;M 201.025 79.674 A 151.364 151.364 0 0 0 193.751 77.382 A 137.5 137.5 0 0 0 194.875 72.421 C 200.381 45.693 196.781 24.161 184.487 17.073 C 172.7 10.275 153.422 17.363 133.952 34.306 A 151.136 151.136 0 0 0 128.326 39.469 A 137.573 137.573 0 0 0 124.582 36.011 C 104.177 17.893 83.724 10.259 71.443 17.368 C 59.667 24.185 56.179 44.428 61.136 69.758 A 150.91 150.91 0 0 0 62.806 77.242 C 59.912 78.064 57.117 78.94 54.443 79.872 C 30.521 88.212 15.243 101.284 15.243 114.842 C 15.243 128.846 31.643 142.892 56.561 151.408 A 128.44 128.44 0 0 0 62.671 153.318 A 147.813 147.813 0 0 0 60.896 161.385 C 56.17 186.275 59.861 206.038 71.606 212.813 C 83.737 219.808 104.097 212.618 123.923 195.288 C 125.49 193.918 127.063 192.465 128.638 190.942 A 148.34 148.34 0 0 0 134.746 196.515 C 153.95 213.04 172.916 219.713 184.651 212.92 C 196.771 205.904 200.709 184.673 195.595 158.842 C 195.205 156.869 194.75 154.854 194.24 152.802 C 195.67 152.38 197.073 151.944 198.442 151.49 C 224.346 142.908 241.199 129.033 241.199 114.842 C 241.199 101.235 225.429 88.075 201.025 79.674 Z&quot;);display:inline;fill:rgb(83, 193, 222);height:auto;inline-size:auto;list-style-type:none;overflow-x:visible;overflow-y:visible;perspective-origin:0px 0px;text-align:left;transform-origin:0px 0px;width:auto;"/>
                                        <path d="M195.406 142.328c-1.235.409-2.503.804-3.795 1.187-2.86-9.053-6.72-18.68-11.442-28.625 4.507-9.71 8.217-19.213 10.997-28.208 2.311.67 4.555 1.375 6.717 2.12 20.91 7.197 33.664 17.84 33.664 26.04 0 8.735-13.775 20.075-36.14 27.486zm-9.28 18.389c2.261 11.422 2.584 21.749 1.086 29.822-1.346 7.254-4.052 12.09-7.398 14.027-7.121 4.122-22.35-1.236-38.772-15.368-1.883-1.62-3.78-3.35-5.682-5.18 6.367-6.964 12.73-15.06 18.94-24.05 10.924-.969 21.244-2.554 30.603-4.717.46 1.86.87 3.683 1.223 5.466zm-93.85 43.137c-6.957 2.457-12.498 2.527-15.847.596-7.128-4.11-10.09-19.98-6.049-41.265a138.507 138.507 0 0 1 1.65-7.502c9.255 2.047 19.5 3.52 30.45 4.408 6.251 8.797 12.798 16.883 19.396 23.964a118.863 118.863 0 0 1-4.305 3.964c-8.767 7.664-17.552 13.1-25.294 15.835zm-32.593-61.58c-11.018-3.766-20.117-8.66-26.354-14-5.604-4.8-8.434-9.565-8.434-13.432 0-8.227 12.267-18.722 32.726-25.855a139.276 139.276 0 0 1 7.777-2.447c2.828 9.197 6.537 18.813 11.013 28.537-4.534 9.869-8.296 19.638-11.15 28.943a118.908 118.908 0 0 1-5.578-1.746zm10.926-74.37c-4.247-21.703-1.427-38.074 5.67-42.182 7.56-4.376 24.275 1.864 41.893 17.507 1.126 1 2.257 2.047 3.39 3.13-6.564 7.049-13.051 15.074-19.248 23.82-10.627.985-20.8 2.567-30.152 4.686a141.525 141.525 0 0 1-1.553-6.962zm97.467 24.067a306.982 306.982 0 0 0-6.871-11.3c7.21.91 14.117 2.12 20.603 3.601-1.947 6.241-4.374 12.767-7.232 19.457a336.42 336.42 0 0 0-6.5-11.758zm-39.747-38.714c4.452 4.823 8.911 10.209 13.297 16.052a284.245 284.245 0 0 0-26.706-.006c4.39-5.789 8.887-11.167 13.409-16.046zm-40.002 38.78a285.24 285.24 0 0 0-6.378 11.685c-2.811-6.667-5.216-13.222-7.18-19.552 6.447-1.443 13.322-2.622 20.485-3.517a283.79 283.79 0 0 0-6.927 11.384zm7.133 57.683c-7.4-.826-14.379-1.945-20.824-3.348 1.995-6.442 4.453-13.138 7.324-19.948a283.494 283.494 0 0 0 6.406 11.692 285.27 285.27 0 0 0 7.094 11.604zm33.136 27.389c-4.575-4.937-9.138-10.397-13.595-16.27 4.326.17 8.737.256 13.22.256 4.606 0 9.159-.103 13.64-.303-4.4 5.98-8.843 11.448-13.265 16.317zm46.072-51.032c3.02 6.884 5.566 13.544 7.588 19.877-6.552 1.495-13.625 2.699-21.078 3.593a337.537 337.537 0 0 0 6.937-11.498 306.632 306.632 0 0 0 6.553-11.972zm-14.915 7.15a316.478 316.478 0 0 1-10.84 17.49c-6.704.479-13.632.726-20.692.726-7.031 0-13.871-.219-20.458-.646A273.798 273.798 0 0 1 96.72 133.28a271.334 271.334 0 0 1-9.64-18.206 273.864 273.864 0 0 1 9.611-18.216v.002a271.252 271.252 0 0 1 10.956-17.442c6.72-.508 13.61-.774 20.575-.774 6.996 0 13.895.268 20.613.78a290.704 290.704 0 0 1 10.887 17.383 316.418 316.418 0 0 1 9.741 18.13 290.806 290.806 0 0 1-9.709 18.29zm19.913-107.792c7.566 4.364 10.509 21.961 5.755 45.038a127.525 127.525 0 0 1-1.016 4.492c-9.374-2.163-19.554-3.773-30.212-4.773-6.209-8.841-12.642-16.88-19.1-23.838a141.92 141.92 0 0 1 5.196-4.766c16.682-14.518 32.273-20.25 39.377-16.153z" fill="#FFF" style="block-size:auto;d:path(&quot;M 195.406 142.328 C 194.171 142.737 192.903 143.132 191.611 143.515 C 188.751 134.462 184.891 124.835 180.169 114.89 C 184.676 105.18 188.386 95.677 191.166 86.682 C 193.477 87.352 195.721 88.057 197.883 88.802 C 218.793 95.999 231.547 106.642 231.547 114.842 C 231.547 123.577 217.772 134.917 195.407 142.328 Z M 186.126 160.717 C 188.387 172.139 188.71 182.466 187.212 190.539 C 185.866 197.793 183.16 202.629 179.814 204.566 C 172.693 208.688 157.464 203.33 141.042 189.198 C 139.159 187.578 137.262 185.848 135.36 184.018 C 141.727 177.054 148.09 168.958 154.3 159.968 C 165.224 158.999 175.544 157.414 184.903 155.251 C 185.363 157.111 185.773 158.934 186.126 160.717 Z M 92.276 203.854 C 85.319 206.311 79.778 206.381 76.429 204.45 C 69.301 200.34 66.339 184.47 70.38 163.185 A 138.507 138.507 0 0 1 72.03 155.683 C 81.285 157.73 91.53 159.203 102.48 160.091 C 108.731 168.888 115.278 176.974 121.876 184.055 A 118.863 118.863 0 0 1 117.571 188.019 C 108.804 195.683 100.019 201.119 92.277 203.854 Z M 59.683 142.274 C 48.665 138.508 39.566 133.614 33.329 128.274 C 27.725 123.474 24.895 118.709 24.895 114.842 C 24.895 106.615 37.162 96.12 57.621 88.987 A 139.276 139.276 0 0 1 65.398 86.54 C 68.226 95.737 71.935 105.353 76.411 115.077 C 71.877 124.946 68.115 134.715 65.261 144.02 A 118.908 118.908 0 0 1 59.683 142.274 Z M 70.609 67.904 C 66.362 46.201 69.182 29.83 76.279 25.722 C 83.839 21.346 100.554 27.586 118.172 43.229 C 119.298 44.229 120.429 45.276 121.562 46.359 C 114.998 53.408 108.511 61.433 102.314 70.179 C 91.687 71.164 81.514 72.746 72.162 74.865 A 141.525 141.525 0 0 1 70.609 67.903 Z M 168.076 91.971 A 306.982 306.982 0 0 0 161.205 80.671 C 168.415 81.581 175.322 82.791 181.808 84.272 C 179.861 90.513 177.434 97.039 174.576 103.729 A 336.42 336.42 0 0 0 168.076 91.971 Z M 128.329 53.257 C 132.781 58.08 137.24 63.466 141.626 69.309 A 284.245 284.245 0 0 0 114.92 69.303 C 119.31 63.514 123.807 58.136 128.329 53.257 Z M 88.327 92.037 A 285.24 285.24 0 0 0 81.949 103.722 C 79.138 97.055 76.733 90.5 74.769 84.17 C 81.216 82.727 88.091 81.548 95.254 80.653 A 283.79 283.79 0 0 0 88.327 92.037 Z M 95.46 149.72 C 88.06 148.894 81.081 147.775 74.636 146.372 C 76.631 139.93 79.089 133.234 81.96 126.424 A 283.494 283.494 0 0 0 88.366 138.116 A 285.27 285.27 0 0 0 95.46 149.72 Z M 128.596 177.109 C 124.021 172.172 119.458 166.712 115.001 160.839 C 119.327 161.009 123.738 161.095 128.221 161.095 C 132.827 161.095 137.38 160.992 141.861 160.792 C 137.461 166.772 133.018 172.24 128.596 177.109 Z M 174.668 126.077 C 177.688 132.961 180.234 139.621 182.256 145.954 C 175.704 147.449 168.631 148.653 161.178 149.547 A 337.537 337.537 0 0 0 168.115 138.049 A 306.632 306.632 0 0 0 174.668 126.077 Z M 159.753 133.227 A 316.478 316.478 0 0 1 148.913 150.717 C 142.209 151.196 135.281 151.443 128.221 151.443 C 121.19 151.443 114.35 151.224 107.763 150.797 A 273.798 273.798 0 0 1 96.72 133.28 A 271.334 271.334 0 0 1 87.08 115.074 A 273.864 273.864 0 0 1 96.691 96.858 V 96.86 A 271.252 271.252 0 0 1 107.647 79.418 C 114.367 78.91 121.257 78.644 128.222 78.644 C 135.218 78.644 142.117 78.912 148.835 79.424 A 290.704 290.704 0 0 1 159.722 96.807 A 316.418 316.418 0 0 1 169.463 114.937 A 290.806 290.806 0 0 1 159.754 133.227 Z M 179.666 25.435 C 187.232 29.799 190.175 47.396 185.421 70.473 A 127.525 127.525 0 0 1 184.405 74.965 C 175.031 72.802 164.851 71.192 154.193 70.192 C 147.984 61.351 141.551 53.312 135.093 46.354 A 141.92 141.92 0 0 1 140.289 41.588 C 156.971 27.07 172.562 21.338 179.666 25.435 Z&quot;);display:inline;fill:rgb(255, 255, 255);height:auto;inline-size:auto;list-style-type:none;overflow-x:visible;overflow-y:visible;perspective-origin:0px 0px;text-align:left;transform-origin:0px 0px;width:auto;"/>
                                        <path d="M128.221 94.665c11.144 0 20.177 9.034 20.177 20.177 0 11.144-9.033 20.178-20.177 20.178-11.143 0-20.177-9.034-20.177-20.178 0-11.143 9.034-20.177 20.177-20.177" fill="#53C1DE" style="block-size:auto;d:path(&quot;M 128.221 94.665 C 139.365 94.665 148.398 103.699 148.398 114.842 C 148.398 125.986 139.365 135.02 128.221 135.02 C 117.078 135.02 108.044 125.986 108.044 114.842 C 108.044 103.699 117.078 94.665 128.221 94.665&quot;);display:inline;fill:rgb(83, 193, 222);height:auto;inline-size:auto;list-style-type:none;overflow-x:visible;overflow-y:visible;perspective-origin:0px 0px;text-align:left;transform-origin:0px 0px;width:auto;"/></svg>