<?xml version="1.0" standalone="no"?><!DOCTYPE svg PUBLIC "-//W3C//DTD SVG 1.1//EN" "http://www.w3.org/Graphics/SVG/1.1/DTD/svg11.dtd"><svg width="90" height="60" viewBox="0 0 512 384" version="1.1" xmlns="http://www.w3.org/2000/svg" xmlns:xlink="http://www.w3.org/1999/xlink" style="block-size:60px;height:60px;inline-size:90px;list-style-type:none;min-block-size:auto;min-height:auto;min-inline-size:auto;min-width:auto;perspective-origin:45px 30px;text-align:left;transform-origin:45px 30px;width:90px;">
                                        <path fill="#CF649A" d="M440.6 220.6c-17.9.101-33.4 4.4-46.4 10.801-4.8-9.5-9.6-17.801-10.399-24-.9-7.2-2-11.601-.9-20.2C384 178.6 389 166.4 389 165.4c-.101-.9-1.101-5.3-11.4-5.4s-19.2 2-20.2 4.7-3 8.9-4.3 15.3c-1.8 9.4-20.6 42.7-31.3 60.2-3.5-6.8-6.5-12.8-7.101-17.601-.899-7.199-2-11.6-.899-20.199 1.1-8.601 6.1-20.8 6.1-21.8-.1-.9-1.1-5.3-11.399-5.4-10.301-.1-19.2 2-20.2 4.7s-2.1 9.1-4.3 15.3C281.9 201.4 256.9 257 250.4 271.5c-3.3 7.4-6.199 13.3-8.3 17.3-2.1 4-.1.3-.3.7-1.8 3.4-2.8 5.3-2.8 5.3v.101c-1.4 2.5-2.9 4.899-3.601 4.899-.5 0-1.5-6.7.2-15.899 3.7-19.301 12.7-49.4 12.601-50.5 0-.5 1.699-5.801-5.801-8.5-7.3-2.7-9.899 1.8-10.5 1.8-.6 0-1.1 1.6-1.1 1.6s8.1-33.899-15.5-33.899c-14.8 0-35.2 16.1-45.3 30.8-6.4 3.5-20 10.899-34.4 18.8-5.5 3-11.2 6.2-16.6 9.1L117.9 251.9c-28.6-30.5-81.5-52.1-79.3-93.1.8-14.9 6-54.2 101.601-101.8 78.3-39 141-28.3 151.899-4.5 15.5 34-33.5 97.2-114.899 106.3-31 3.5-47.301-8.5-51.4-13-4.3-4.7-4.9-4.9-6.5-4-2.6 1.4-1 5.6 0 8.1 2.4 6.3 12.4 17.5 29.4 23.1 14.899 4.9 51.3 7.6 95.3-9.4 49.3-19.1 87.8-72.1 76.5-116.4-11.5-45.1-86.3-59.9-157-34.8C121.4 27.4 75.8 50.8 43 81.5 4 117.9-2.2 149.7.4 162.9c9.101 47.1 74 77.8 100 100.5-1.3.699-2.5 1.399-3.6 2-13 6.399-62.5 32.3-74.9 59.699-14 31 2.2 53.301 13 56.301 33.4 9.3 67.6-7.4 86.1-34.9 18.399-27.5 16.2-63.2 7.7-79.5l-.301-.6 10.2-6c6.601-3.9 13.101-7.5 18.8-10.601-3.199 8.7-5.5 19-6.699 34-1.4 17.601 5.8 40.4 15.3 49.4 4.2 3.899 9.2 4 12.3 4 11 0 16-9.101 21.5-20 6.8-13.3 12.8-28.7 12.8-28.7s-7.5 41.7 13 41.7c7.5 0 15-9.7 18.4-14.7v.1s.2-.3.6-1a36.13 36.13 0 0 0 1.2-1.899v-.2c3-5.2 9.7-17.1 19.7-36.8 12.899-25.4 25.3-57.2 25.3-57.2s1.2 7.8 4.9 20.6c2.199 7.601 6.999 15.9 10.699 24-3 4.2-4.8 6.601-4.8 6.601l.1.1c-2.399 3.2-5.1 6.601-7.899 10-10.2 12.2-22.4 26.101-24 30.101-1.9 4.699-1.5 8.199 2.2 11 2.7 2 7.5 2.399 12.6 2 9.2-.601 15.6-2.9 18.8-4.301 5-1.8 10.7-4.5 16.2-8.5 10-7.399 16.1-17.899 15.5-31.899-.3-7.7-2.8-15.3-5.9-22.5.9-1.3 1.801-2.601 2.7-4 15.8-23.101 28-48.5 28-48.5s1.2 7.8 4.9 20.6c1.899 6.5 5.7 13.601 9.1 20.601-14.8 12.1-24.1 26.1-27.3 35.3-5.9 17-1.3 24.7 7.4 26.5 3.899.8 9.5-1 13.699-2.8 5.2-1.7 11.5-4.601 17.301-8.9 10-7.4 19.6-17.7 19.1-31.6-.3-6.4-2-12.7-4.3-18.7 12.6-5.2 28.899-8.2 49.6-5.7 44.5 5.2 53.3 33 51.601 44.6-1.7 11.601-11 18-14.101 20-3.1 1.9-4.1 2.601-3.8 4 .4 2.101 1.8 2 4.5 1.601 3.7-.601 23.4-9.5 24.2-30.899 1.2-27.504-24.9-57.504-71.2-57.205zM97.4 336.3c-14.7 16.1-35.4 22.2-44.2 17-9.5-5.5-5.801-29.2 12.3-46.3 11-10.4 25.3-20 34.7-25.9 2.1-1.3 5.3-3.199 9.1-5.5.6-.399 1-.6 1-.6.7-.4 1.5-.9 2.3-1.4 6.7 24.4.3 45.8-15.2 62.7zm107.5-73.1c-5.1 12.5-15.9 44.6-22.4 42.8-5.601-1.5-9-25.8-1.101-49.8 4-12.101 12.5-26.5 17.5-32.101 8.101-9 16.9-12 19.101-8.3 2.6 4.801-9.9 39.601-13.1 47.401zm88.7 42.4c-2.2 1.101-4.2 1.9-5.1 1.301-.7-.4.899-1.9.899-1.9s11.1-11.9 15.5-17.4c2.5-3.199 5.5-6.899 8.7-11.1v1.2C313.6 292.1 299.8 301.7 293.6 305.6zm68.399-15.6c-1.6-1.2-1.399-4.9 4-16.5 2.101-4.6 6.9-12.3 15.2-19.6 1 3 1.601 5.899 1.5 8.6-.099 18-12.899 24.7-20.7 27.5z" style="block-size:auto;d:path(&quot;M 440.6 220.6 C 422.7 220.701 407.2 225 394.2 231.401 C 389.4 221.901 384.6 213.6 383.801 207.401 C 382.901 200.201 381.801 195.8 382.901 187.201 C 384 178.6 389 166.4 389 165.4 C 388.899 164.5 387.899 160.1 377.6 160 S 358.4 162 357.4 164.7 S 354.4 173.6 353.1 180 C 351.3 189.4 332.5 222.7 321.8 240.2 C 318.3 233.4 315.3 227.4 314.699 222.599 C 313.8 215.4 312.699 210.999 313.8 202.4 C 314.9 193.799 319.9 181.6 319.9 180.6 C 319.8 179.7 318.8 175.3 308.501 175.2 C 298.2 175.1 289.301 177.2 288.301 179.9 S 286.201 189 284.001 195.2 C 281.9 201.4 256.9 257 250.4 271.5 C 247.1 278.9 244.201 284.8 242.1 288.8 C 240 292.8 242 289.1 241.8 289.5 C 240 292.9 239 294.8 239 294.8 V 294.901 C 237.6 297.401 236.1 299.8 235.399 299.8 C 234.899 299.8 233.899 293.1 235.599 283.901 C 239.299 264.6 248.299 234.501 248.2 233.401 C 248.2 232.901 249.899 227.6 242.399 224.901 C 235.099 222.201 232.5 226.701 231.899 226.701 C 231.299 226.701 230.799 228.301 230.799 228.301 S 238.899 194.402 215.299 194.402 C 200.499 194.402 180.099 210.502 169.999 225.202 C 163.599 228.702 149.999 236.101 135.599 244.002 C 130.099 247.002 124.399 250.202 118.999 253.102 L 117.9 251.9 C 89.3 221.4 36.4 199.8 38.6 158.8 C 39.4 143.9 44.6 104.6 140.201 57 C 218.501 18 281.201 28.7 292.1 52.5 C 307.6 86.5 258.6 149.7 177.201 158.8 C 146.201 162.3 129.9 150.3 125.801 145.8 C 121.501 141.1 120.901 140.9 119.301 141.8 C 116.701 143.2 118.301 147.4 119.301 149.9 C 121.701 156.2 131.701 167.4 148.701 173 C 163.6 177.9 200.001 180.6 244.001 163.6 C 293.301 144.5 331.801 91.5 320.501 47.2 C 309.001 2.10001 234.201 -12.7 163.501 12.4 C 121.4 27.4 75.8 50.8 43 81.5 C 4 117.9 -2.2 149.7 0.4 162.9 C 9.501 210 74.4 240.7 100.4 263.4 C 99.1 264.099 97.9 264.799 96.8 265.4 C 83.8 271.799 34.3 297.7 21.9 325.099 C 7.9 356.099 24.1 378.4 34.9 381.4 C 68.3 390.7 102.5 374 121 346.5 C 139.399 319 137.2 283.3 128.7 267 L 128.399 266.4 L 138.599 260.4 C 145.2 256.5 151.7 252.9 157.399 249.799 C 154.2 258.499 151.899 268.799 150.7 283.799 C 149.3 301.4 156.5 324.199 166 333.199 C 170.2 337.098 175.2 337.199 178.3 337.199 C 189.3 337.199 194.3 328.098 199.8 317.199 C 206.6 303.899 212.6 288.499 212.6 288.499 S 205.1 330.199 225.6 330.199 C 233.1 330.199 240.6 320.499 244 315.499 V 315.599 S 244.2 315.299 244.6 314.599 A 36.13 36.13 0 0 0 245.8 312.7 V 312.5 C 248.8 307.3 255.5 295.4 265.5 275.7 C 278.399 250.3 290.8 218.5 290.8 218.5 S 292 226.3 295.7 239.1 C 297.899 246.701 302.699 255 306.399 263.1 C 303.399 267.3 301.599 269.701 301.599 269.701 L 301.699 269.801 C 299.3 273.001 296.599 276.402 293.8 279.801 C 283.6 292.001 271.4 305.902 269.8 309.902 C 267.9 314.601 268.3 318.101 272 320.902 C 274.7 322.902 279.5 323.301 284.6 322.902 C 293.8 322.301 300.2 320.002 303.4 318.601 C 308.4 316.801 314.1 314.101 319.6 310.101 C 329.6 302.702 335.7 292.202 335.1 278.202 C 334.8 270.502 332.3 262.902 329.2 255.702 C 330.1 254.402 331.001 253.101 331.9 251.702 C 347.7 228.601 359.9 203.202 359.9 203.202 S 361.1 211.002 364.8 223.802 C 366.699 230.302 370.5 237.403 373.9 244.403 C 359.1 256.503 349.8 270.503 346.6 279.703 C 340.7 296.703 345.3 304.403 354 306.203 C 357.899 307.003 363.5 305.203 367.699 303.403 C 372.899 301.703 379.199 298.802 385 294.503 C 395 287.103 404.6 276.803 404.1 262.903 C 403.8 256.503 402.1 250.203 399.8 244.203 C 412.4 239.003 428.699 236.003 449.4 238.503 C 493.9 243.703 502.7 271.503 501.001 283.103 C 499.301 294.704 490.001 301.103 486.9 303.103 C 483.8 305.003 482.8 305.704 483.1 307.103 C 483.5 309.204 484.9 309.103 487.6 308.704 C 491.3 308.103 511 299.204 511.8 277.805 C 513 250.301 486.9 220.301 440.6 220.6 Z M 97.4 336.3 C 82.7 352.4 62 358.5 53.2 353.3 C 43.7 347.8 47.399 324.1 65.5 307 C 76.5 296.6 90.8 287 100.2 281.1 C 102.3 279.8 105.5 277.901 109.3 275.6 C 109.9 275.201 110.3 275 110.3 275 C 111 274.6 111.8 274.1 112.6 273.6 C 119.3 298 112.9 319.4 97.4 336.3 Z M 204.9 263.2 C 199.8 275.7 189 307.8 182.5 306 C 176.899 304.5 173.5 280.2 181.399 256.2 C 185.399 244.099 193.899 229.7 198.899 224.099 C 207 215.099 215.799 212.099 218 215.799 C 220.6 220.6 208.1 255.4 204.9 263.2 Z M 293.6 305.6 C 291.4 306.701 289.4 307.5 288.5 306.901 C 287.8 306.501 289.399 305.001 289.399 305.001 S 300.499 293.101 304.899 287.601 C 307.399 284.402 310.399 280.702 313.599 276.501 V 277.701 C 313.6 292.1 299.8 301.7 293.6 305.6 Z M 361.999 290 C 360.399 288.8 360.6 285.1 365.999 273.5 C 368.1 268.9 372.899 261.2 381.199 253.9 C 382.199 256.9 382.8 259.799 382.699 262.5 C 382.6 280.5 369.8 287.2 361.999 290 Z&quot;);display:inline;fill:rgb(207, 100, 154);height:auto;inline-size:auto;list-style-type:none;overflow-x:visible;overflow-y:visible;perspective-origin:0px 0px;text-align:left;transform-origin:0px 0px;width:auto;"/>
                                    </svg>